<mxfile host="65bd71144e">
    <diagram name="Page-1" id="XClhWzkC23hlwMQdCOxP">
        <mxGraphModel dx="755" dy="549" grid="0" gridSize="10" guides="1" tooltips="1" connect="1" arrows="1" fold="1" page="1" pageScale="1" pageWidth="1654" pageHeight="2336" background="none" math="0" shadow="0">
            <root>
                <mxCell id="0"/>
                <mxCell id="1" parent="0"/>
                <mxCell id="n5-ivR6pZSbbAcUmIhZk-173" value="Employee" style="swimlane;fontStyle=1;align=center;verticalAlign=top;childLayout=stackLayout;horizontal=1;startSize=29.149999618530273;horizontalStack=0;resizeParent=1;resizeParentMax=0;resizeLast=0;collapsible=0;marginBottom=0;" parent="1" vertex="1">
                    <mxGeometry x="558" y="169" width="239" height="298.1499996185303" as="geometry"/>
                </mxCell>
                <mxCell id="n5-ivR6pZSbbAcUmIhZk-174" value="- employeeId : integer" style="text;strokeColor=none;fillColor=none;align=left;verticalAlign=top;spacingLeft=4;spacingRight=4;overflow=hidden;rotatable=0;points=[[0,0.5],[1,0.5]];portConstraint=eastwest;" parent="n5-ivR6pZSbbAcUmIhZk-173" vertex="1">
                    <mxGeometry y="29.149999618530273" width="239" height="29" as="geometry"/>
                </mxCell>
                <mxCell id="n5-ivR6pZSbbAcUmIhZk-175" value="- employeeReportsTo : integer " style="text;strokeColor=none;fillColor=none;align=left;verticalAlign=top;spacingLeft=4;spacingRight=4;overflow=hidden;rotatable=0;points=[[0,0.5],[1,0.5]];portConstraint=eastwest;" parent="n5-ivR6pZSbbAcUmIhZk-173" vertex="1">
                    <mxGeometry y="58.14999961853027" width="239" height="29" as="geometry"/>
                </mxCell>
                <mxCell id="n5-ivR6pZSbbAcUmIhZk-230" value="- employeeName : varchar(50) " style="text;strokeColor=none;fillColor=none;align=left;verticalAlign=top;spacingLeft=4;spacingRight=4;overflow=hidden;rotatable=0;points=[[0,0.5],[1,0.5]];portConstraint=eastwest;" parent="n5-ivR6pZSbbAcUmIhZk-173" vertex="1">
                    <mxGeometry y="87.14999961853027" width="239" height="29" as="geometry"/>
                </mxCell>
                <mxCell id="n5-ivR6pZSbbAcUmIhZk-176" style="line;strokeWidth=1;fillColor=none;align=left;verticalAlign=middle;spacingTop=-1;spacingLeft=3;spacingRight=3;rotatable=0;labelPosition=right;points=[];portConstraint=eastwest;strokeColor=inherit;" parent="n5-ivR6pZSbbAcUmIhZk-173" vertex="1">
                    <mxGeometry y="116.14999961853027" width="239" height="8" as="geometry"/>
                </mxCell>
                <mxCell id="n5-ivR6pZSbbAcUmIhZk-231" value="+ GetAllEmployees()" style="text;strokeColor=none;fillColor=none;align=left;verticalAlign=top;spacingLeft=4;spacingRight=4;overflow=hidden;rotatable=0;points=[[0,0.5],[1,0.5]];portConstraint=eastwest;" parent="n5-ivR6pZSbbAcUmIhZk-173" vertex="1">
                    <mxGeometry y="124.14999961853027" width="239" height="29" as="geometry"/>
                </mxCell>
                <mxCell id="n5-ivR6pZSbbAcUmIhZk-232" value="+ AddEmployee(employee)" style="text;strokeColor=none;fillColor=none;align=left;verticalAlign=top;spacingLeft=4;spacingRight=4;overflow=hidden;rotatable=0;points=[[0,0.5],[1,0.5]];portConstraint=eastwest;" parent="n5-ivR6pZSbbAcUmIhZk-173" vertex="1">
                    <mxGeometry y="153.14999961853027" width="239" height="29" as="geometry"/>
                </mxCell>
                <mxCell id="n5-ivR6pZSbbAcUmIhZk-233" value="+ GetEmployeesById(employeeId)" style="text;strokeColor=none;fillColor=none;align=left;verticalAlign=top;spacingLeft=4;spacingRight=4;overflow=hidden;rotatable=0;points=[[0,0.5],[1,0.5]];portConstraint=eastwest;" parent="n5-ivR6pZSbbAcUmIhZk-173" vertex="1">
                    <mxGeometry y="182.14999961853027" width="239" height="29" as="geometry"/>
                </mxCell>
                <mxCell id="n5-ivR6pZSbbAcUmIhZk-234" value="+ GetEmployeesByName(employeeName)" style="text;strokeColor=none;fillColor=none;align=left;verticalAlign=top;spacingLeft=4;spacingRight=4;overflow=hidden;rotatable=0;points=[[0,0.5],[1,0.5]];portConstraint=eastwest;" parent="n5-ivR6pZSbbAcUmIhZk-173" vertex="1">
                    <mxGeometry y="211.14999961853027" width="239" height="29" as="geometry"/>
                </mxCell>
                <mxCell id="n5-ivR6pZSbbAcUmIhZk-235" value="+ UpdateEmployee(employee)" style="text;strokeColor=none;fillColor=none;align=left;verticalAlign=top;spacingLeft=4;spacingRight=4;overflow=hidden;rotatable=0;points=[[0,0.5],[1,0.5]];portConstraint=eastwest;" parent="n5-ivR6pZSbbAcUmIhZk-173" vertex="1">
                    <mxGeometry y="240.14999961853027" width="239" height="29" as="geometry"/>
                </mxCell>
                <mxCell id="n5-ivR6pZSbbAcUmIhZk-236" value="+ DeleteEmployee(employeeId)" style="text;strokeColor=none;fillColor=none;align=left;verticalAlign=top;spacingLeft=4;spacingRight=4;overflow=hidden;rotatable=0;points=[[0,0.5],[1,0.5]];portConstraint=eastwest;" parent="n5-ivR6pZSbbAcUmIhZk-173" vertex="1">
                    <mxGeometry y="269.1499996185303" width="239" height="29" as="geometry"/>
                </mxCell>
                <mxCell id="n5-ivR6pZSbbAcUmIhZk-178" value="EmployeeContact" style="swimlane;fontStyle=1;align=center;verticalAlign=top;childLayout=stackLayout;horizontal=1;startSize=27.8;horizontalStack=0;resizeParent=1;resizeParentMax=0;resizeLast=0;collapsible=0;marginBottom=0;" parent="1" vertex="1">
                    <mxGeometry x="98" y="619" width="274" height="287.8" as="geometry"/>
                </mxCell>
                <mxCell id="n5-ivR6pZSbbAcUmIhZk-179" value="- employeeContactId : integer " style="text;strokeColor=none;fillColor=none;align=left;verticalAlign=top;spacingLeft=4;spacingRight=4;overflow=hidden;rotatable=0;points=[[0,0.5],[1,0.5]];portConstraint=eastwest;" parent="n5-ivR6pZSbbAcUmIhZk-178" vertex="1">
                    <mxGeometry y="27.8" width="274" height="28" as="geometry"/>
                </mxCell>
                <mxCell id="n5-ivR6pZSbbAcUmIhZk-180" value="- employeeId : integer" style="text;strokeColor=none;fillColor=none;align=left;verticalAlign=top;spacingLeft=4;spacingRight=4;overflow=hidden;rotatable=0;points=[[0,0.5],[1,0.5]];portConstraint=eastwest;" parent="n5-ivR6pZSbbAcUmIhZk-178" vertex="1">
                    <mxGeometry y="55.8" width="274" height="28" as="geometry"/>
                </mxCell>
                <mxCell id="n5-ivR6pZSbbAcUmIhZk-182" value="- employeeEmail : varchar(50)" style="text;strokeColor=none;fillColor=none;align=left;verticalAlign=top;spacingLeft=4;spacingRight=4;overflow=hidden;rotatable=0;points=[[0,0.5],[1,0.5]];portConstraint=eastwest;" parent="n5-ivR6pZSbbAcUmIhZk-178" vertex="1">
                    <mxGeometry y="83.8" width="274" height="28" as="geometry"/>
                </mxCell>
                <mxCell id="n5-ivR6pZSbbAcUmIhZk-183" value="- employeeContact : varchar(13) " style="text;strokeColor=none;fillColor=none;align=left;verticalAlign=top;spacingLeft=4;spacingRight=4;overflow=hidden;rotatable=0;points=[[0,0.5],[1,0.5]];portConstraint=eastwest;" parent="n5-ivR6pZSbbAcUmIhZk-178" vertex="1">
                    <mxGeometry y="111.8" width="274" height="28" as="geometry"/>
                </mxCell>
                <mxCell id="n5-ivR6pZSbbAcUmIhZk-181" style="line;strokeWidth=1;fillColor=none;align=left;verticalAlign=middle;spacingTop=-1;spacingLeft=3;spacingRight=3;rotatable=0;labelPosition=right;points=[];portConstraint=eastwest;strokeColor=inherit;" parent="n5-ivR6pZSbbAcUmIhZk-178" vertex="1">
                    <mxGeometry y="139.8" width="274" height="8" as="geometry"/>
                </mxCell>
                <mxCell id="n5-ivR6pZSbbAcUmIhZk-237" value="+ GetAllEvents()" style="text;strokeColor=none;fillColor=none;align=left;verticalAlign=top;spacingLeft=4;spacingRight=4;overflow=hidden;rotatable=0;points=[[0,0.5],[1,0.5]];portConstraint=eastwest;" parent="n5-ivR6pZSbbAcUmIhZk-178" vertex="1">
                    <mxGeometry y="147.8" width="274" height="28" as="geometry"/>
                </mxCell>
                <mxCell id="n5-ivR6pZSbbAcUmIhZk-238" value="+ GetEventByName(eventName)" style="text;strokeColor=none;fillColor=none;align=left;verticalAlign=top;spacingLeft=4;spacingRight=4;overflow=hidden;rotatable=0;points=[[0,0.5],[1,0.5]];portConstraint=eastwest;" parent="n5-ivR6pZSbbAcUmIhZk-178" vertex="1">
                    <mxGeometry y="175.8" width="274" height="28" as="geometry"/>
                </mxCell>
                <mxCell id="n5-ivR6pZSbbAcUmIhZk-239" value="+ CreateEvent(event)" style="text;strokeColor=none;fillColor=none;align=left;verticalAlign=top;spacingLeft=4;spacingRight=4;overflow=hidden;rotatable=0;points=[[0,0.5],[1,0.5]];portConstraint=eastwest;" parent="n5-ivR6pZSbbAcUmIhZk-178" vertex="1">
                    <mxGeometry y="203.8" width="274" height="28" as="geometry"/>
                </mxCell>
                <mxCell id="n5-ivR6pZSbbAcUmIhZk-241" value="+ DeleteEvent(eventId)" style="text;strokeColor=none;fillColor=none;align=left;verticalAlign=top;spacingLeft=4;spacingRight=4;overflow=hidden;rotatable=0;points=[[0,0.5],[1,0.5]];portConstraint=eastwest;" parent="n5-ivR6pZSbbAcUmIhZk-178" vertex="1">
                    <mxGeometry y="231.8" width="274" height="28" as="geometry"/>
                </mxCell>
                <mxCell id="n5-ivR6pZSbbAcUmIhZk-240" value="+ UpdateEvent(event)" style="text;strokeColor=none;fillColor=none;align=left;verticalAlign=top;spacingLeft=4;spacingRight=4;overflow=hidden;rotatable=0;points=[[0,0.5],[1,0.5]];portConstraint=eastwest;" parent="n5-ivR6pZSbbAcUmIhZk-178" vertex="1">
                    <mxGeometry y="259.8" width="274" height="28" as="geometry"/>
                </mxCell>
                <mxCell id="n5-ivR6pZSbbAcUmIhZk-184" value="DeskBooking" style="swimlane;fontStyle=1;align=center;verticalAlign=top;childLayout=stackLayout;horizontal=1;startSize=25.272727272727273;horizontalStack=0;resizeParent=1;resizeParentMax=0;resizeLast=0;collapsible=0;marginBottom=0;" parent="1" vertex="1">
                    <mxGeometry x="428" y="719" width="238" height="238.27272727272728" as="geometry"/>
                </mxCell>
                <mxCell id="n5-ivR6pZSbbAcUmIhZk-185" value="- deskBookingId : integer" style="text;strokeColor=none;fillColor=none;align=left;verticalAlign=top;spacingLeft=4;spacingRight=4;overflow=hidden;rotatable=0;points=[[0,0.5],[1,0.5]];portConstraint=eastwest;" parent="n5-ivR6pZSbbAcUmIhZk-184" vertex="1">
                    <mxGeometry y="25.272727272727273" width="238" height="25" as="geometry"/>
                </mxCell>
                <mxCell id="n5-ivR6pZSbbAcUmIhZk-186" value="- employeeId : integer" style="text;strokeColor=none;fillColor=none;align=left;verticalAlign=top;spacingLeft=4;spacingRight=4;overflow=hidden;rotatable=0;points=[[0,0.5],[1,0.5]];portConstraint=eastwest;" parent="n5-ivR6pZSbbAcUmIhZk-184" vertex="1">
                    <mxGeometry y="50.27272727272727" width="238" height="25" as="geometry"/>
                </mxCell>
                <mxCell id="n5-ivR6pZSbbAcUmIhZk-187" value="- neighbourId : integer" style="text;strokeColor=none;fillColor=none;align=left;verticalAlign=top;spacingLeft=4;spacingRight=4;overflow=hidden;rotatable=0;points=[[0,0.5],[1,0.5]];portConstraint=eastwest;" parent="n5-ivR6pZSbbAcUmIhZk-184" vertex="1">
                    <mxGeometry y="75.27272727272728" width="238" height="25" as="geometry"/>
                </mxCell>
                <mxCell id="n5-ivR6pZSbbAcUmIhZk-188" value="- deskBookingDate : date " style="text;strokeColor=none;fillColor=none;align=left;verticalAlign=top;spacingLeft=4;spacingRight=4;overflow=hidden;rotatable=0;points=[[0,0.5],[1,0.5]];portConstraint=eastwest;" parent="n5-ivR6pZSbbAcUmIhZk-184" vertex="1">
                    <mxGeometry y="100.27272727272728" width="238" height="25" as="geometry"/>
                </mxCell>
                <mxCell id="n5-ivR6pZSbbAcUmIhZk-189" style="line;strokeWidth=1;fillColor=none;align=left;verticalAlign=middle;spacingTop=-1;spacingLeft=3;spacingRight=3;rotatable=0;labelPosition=right;points=[];portConstraint=eastwest;strokeColor=inherit;" parent="n5-ivR6pZSbbAcUmIhZk-184" vertex="1">
                    <mxGeometry y="125.27272727272728" width="238" height="13" as="geometry"/>
                </mxCell>
                <mxCell id="n5-ivR6pZSbbAcUmIhZk-242" value="+ CreateDeskBooking(deskBooking)" style="text;strokeColor=none;fillColor=none;align=left;verticalAlign=top;spacingLeft=4;spacingRight=4;overflow=hidden;rotatable=0;points=[[0,0.5],[1,0.5]];portConstraint=eastwest;" parent="n5-ivR6pZSbbAcUmIhZk-184" vertex="1">
                    <mxGeometry y="138.27272727272728" width="238" height="25" as="geometry"/>
                </mxCell>
                <mxCell id="n5-ivR6pZSbbAcUmIhZk-243" value="+ GetDeskBookingById(deskBookingId)" style="text;strokeColor=none;fillColor=none;align=left;verticalAlign=top;spacingLeft=4;spacingRight=4;overflow=hidden;rotatable=0;points=[[0,0.5],[1,0.5]];portConstraint=eastwest;" parent="n5-ivR6pZSbbAcUmIhZk-184" vertex="1">
                    <mxGeometry y="163.27272727272728" width="238" height="25" as="geometry"/>
                </mxCell>
                <mxCell id="n5-ivR6pZSbbAcUmIhZk-244" value="+ GetAllDeskBookings()" style="text;strokeColor=none;fillColor=none;align=left;verticalAlign=top;spacingLeft=4;spacingRight=4;overflow=hidden;rotatable=0;points=[[0,0.5],[1,0.5]];portConstraint=eastwest;" parent="n5-ivR6pZSbbAcUmIhZk-184" vertex="1">
                    <mxGeometry y="188.27272727272728" width="238" height="25" as="geometry"/>
                </mxCell>
                <mxCell id="n5-ivR6pZSbbAcUmIhZk-245" value="+ DeleteDeskBooking(deskBookingId)" style="text;strokeColor=none;fillColor=none;align=left;verticalAlign=top;spacingLeft=4;spacingRight=4;overflow=hidden;rotatable=0;points=[[0,0.5],[1,0.5]];portConstraint=eastwest;" parent="n5-ivR6pZSbbAcUmIhZk-184" vertex="1">
                    <mxGeometry y="213.27272727272728" width="238" height="25" as="geometry"/>
                </mxCell>
                <mxCell id="n5-ivR6pZSbbAcUmIhZk-190" value="Vacation" style="swimlane;fontStyle=1;align=center;verticalAlign=top;childLayout=stackLayout;horizontal=1;startSize=25.272727272727273;horizontalStack=0;resizeParent=1;resizeParentMax=0;resizeLast=0;collapsible=0;marginBottom=0;" parent="1" vertex="1">
                    <mxGeometry x="718" y="679" width="219" height="263.27272727272725" as="geometry"/>
                </mxCell>
                <mxCell id="n5-ivR6pZSbbAcUmIhZk-191" value="- vacationId : integer" style="text;strokeColor=none;fillColor=none;align=left;verticalAlign=top;spacingLeft=4;spacingRight=4;overflow=hidden;rotatable=0;points=[[0,0.5],[1,0.5]];portConstraint=eastwest;" parent="n5-ivR6pZSbbAcUmIhZk-190" vertex="1">
                    <mxGeometry y="25.272727272727273" width="219" height="25" as="geometry"/>
                </mxCell>
                <mxCell id="n5-ivR6pZSbbAcUmIhZk-192" value="- employeeId : integer" style="text;strokeColor=none;fillColor=none;align=left;verticalAlign=top;spacingLeft=4;spacingRight=4;overflow=hidden;rotatable=0;points=[[0,0.5],[1,0.5]];portConstraint=eastwest;" parent="n5-ivR6pZSbbAcUmIhZk-190" vertex="1">
                    <mxGeometry y="50.27272727272727" width="219" height="25" as="geometry"/>
                </mxCell>
                <mxCell id="n5-ivR6pZSbbAcUmIhZk-193" value="- vacationStartDate : date" style="text;strokeColor=none;fillColor=none;align=left;verticalAlign=top;spacingLeft=4;spacingRight=4;overflow=hidden;rotatable=0;points=[[0,0.5],[1,0.5]];portConstraint=eastwest;" parent="n5-ivR6pZSbbAcUmIhZk-190" vertex="1">
                    <mxGeometry y="75.27272727272728" width="219" height="25" as="geometry"/>
                </mxCell>
                <mxCell id="n5-ivR6pZSbbAcUmIhZk-194" value="- vacationEndDate : date" style="text;strokeColor=none;fillColor=none;align=left;verticalAlign=top;spacingLeft=4;spacingRight=4;overflow=hidden;rotatable=0;points=[[0,0.5],[1,0.5]];portConstraint=eastwest;" parent="n5-ivR6pZSbbAcUmIhZk-190" vertex="1">
                    <mxGeometry y="100.27272727272728" width="219" height="25" as="geometry"/>
                </mxCell>
                <mxCell id="n5-ivR6pZSbbAcUmIhZk-195" style="line;strokeWidth=1;fillColor=none;align=left;verticalAlign=middle;spacingTop=-1;spacingLeft=3;spacingRight=3;rotatable=0;labelPosition=right;points=[];portConstraint=eastwest;strokeColor=inherit;" parent="n5-ivR6pZSbbAcUmIhZk-190" vertex="1">
                    <mxGeometry y="125.27272727272728" width="219" height="13" as="geometry"/>
                </mxCell>
                <mxCell id="n5-ivR6pZSbbAcUmIhZk-246" value="+ CreateVacation(vacation)" style="text;strokeColor=none;fillColor=none;align=left;verticalAlign=top;spacingLeft=4;spacingRight=4;overflow=hidden;rotatable=0;points=[[0,0.5],[1,0.5]];portConstraint=eastwest;" parent="n5-ivR6pZSbbAcUmIhZk-190" vertex="1">
                    <mxGeometry y="138.27272727272728" width="219" height="25" as="geometry"/>
                </mxCell>
                <mxCell id="n5-ivR6pZSbbAcUmIhZk-247" value="+ GetVacationById(vacationId)" style="text;strokeColor=none;fillColor=none;align=left;verticalAlign=top;spacingLeft=4;spacingRight=4;overflow=hidden;rotatable=0;points=[[0,0.5],[1,0.5]];portConstraint=eastwest;" parent="n5-ivR6pZSbbAcUmIhZk-190" vertex="1">
                    <mxGeometry y="163.27272727272728" width="219" height="25" as="geometry"/>
                </mxCell>
                <mxCell id="n5-ivR6pZSbbAcUmIhZk-249" value="+ GetAllVacations()" style="text;strokeColor=none;fillColor=none;align=left;verticalAlign=top;spacingLeft=4;spacingRight=4;overflow=hidden;rotatable=0;points=[[0,0.5],[1,0.5]];portConstraint=eastwest;" parent="n5-ivR6pZSbbAcUmIhZk-190" vertex="1">
                    <mxGeometry y="188.27272727272728" width="219" height="25" as="geometry"/>
                </mxCell>
                <mxCell id="n5-ivR6pZSbbAcUmIhZk-250" value="+ UpdateVacations(vacation)" style="text;strokeColor=none;fillColor=none;align=left;verticalAlign=top;spacingLeft=4;spacingRight=4;overflow=hidden;rotatable=0;points=[[0,0.5],[1,0.5]];portConstraint=eastwest;" parent="n5-ivR6pZSbbAcUmIhZk-190" vertex="1">
                    <mxGeometry y="213.27272727272728" width="219" height="25" as="geometry"/>
                </mxCell>
                <mxCell id="n5-ivR6pZSbbAcUmIhZk-251" value="+ DeleteVacations(vacationId)" style="text;strokeColor=none;fillColor=none;align=left;verticalAlign=top;spacingLeft=4;spacingRight=4;overflow=hidden;rotatable=0;points=[[0,0.5],[1,0.5]];portConstraint=eastwest;" parent="n5-ivR6pZSbbAcUmIhZk-190" vertex="1">
                    <mxGeometry y="238.27272727272728" width="219" height="25" as="geometry"/>
                </mxCell>
                <mxCell id="n5-ivR6pZSbbAcUmIhZk-196" value="Events" style="swimlane;fontStyle=1;align=center;verticalAlign=top;childLayout=stackLayout;horizontal=1;startSize=27.8;horizontalStack=0;resizeParent=1;resizeParentMax=0;resizeLast=0;collapsible=0;marginBottom=0;" parent="1" vertex="1">
                    <mxGeometry x="1038" y="169" width="243" height="287.8" as="geometry"/>
                </mxCell>
                <mxCell id="n5-ivR6pZSbbAcUmIhZk-197" value="- eventID : integer" style="text;strokeColor=none;fillColor=none;align=left;verticalAlign=top;spacingLeft=4;spacingRight=4;overflow=hidden;rotatable=0;points=[[0,0.5],[1,0.5]];portConstraint=eastwest;" parent="n5-ivR6pZSbbAcUmIhZk-196" vertex="1">
                    <mxGeometry y="27.8" width="243" height="28" as="geometry"/>
                </mxCell>
                <mxCell id="n5-ivR6pZSbbAcUmIhZk-198" value="- eventDate : date" style="text;strokeColor=none;fillColor=none;align=left;verticalAlign=top;spacingLeft=4;spacingRight=4;overflow=hidden;rotatable=0;points=[[0,0.5],[1,0.5]];portConstraint=eastwest;" parent="n5-ivR6pZSbbAcUmIhZk-196" vertex="1">
                    <mxGeometry y="55.8" width="243" height="28" as="geometry"/>
                </mxCell>
                <mxCell id="n5-ivR6pZSbbAcUmIhZk-200" value="- eventName : varchar(50)" style="text;strokeColor=none;fillColor=none;align=left;verticalAlign=top;spacingLeft=4;spacingRight=4;overflow=hidden;rotatable=0;points=[[0,0.5],[1,0.5]];portConstraint=eastwest;" parent="n5-ivR6pZSbbAcUmIhZk-196" vertex="1">
                    <mxGeometry y="83.8" width="243" height="28" as="geometry"/>
                </mxCell>
                <mxCell id="n5-ivR6pZSbbAcUmIhZk-201" value="- eventDescription : varchar(300)" style="text;strokeColor=none;fillColor=none;align=left;verticalAlign=top;spacingLeft=4;spacingRight=4;overflow=hidden;rotatable=0;points=[[0,0.5],[1,0.5]];portConstraint=eastwest;" parent="n5-ivR6pZSbbAcUmIhZk-196" vertex="1">
                    <mxGeometry y="111.8" width="243" height="28" as="geometry"/>
                </mxCell>
                <mxCell id="n5-ivR6pZSbbAcUmIhZk-199" style="line;strokeWidth=1;fillColor=none;align=left;verticalAlign=middle;spacingTop=-1;spacingLeft=3;spacingRight=3;rotatable=0;labelPosition=right;points=[];portConstraint=eastwest;strokeColor=inherit;" parent="n5-ivR6pZSbbAcUmIhZk-196" vertex="1">
                    <mxGeometry y="139.8" width="243" height="8" as="geometry"/>
                </mxCell>
                <mxCell id="n5-ivR6pZSbbAcUmIhZk-252" value="+ GetAllEvents()" style="text;strokeColor=none;fillColor=none;align=left;verticalAlign=top;spacingLeft=4;spacingRight=4;overflow=hidden;rotatable=0;points=[[0,0.5],[1,0.5]];portConstraint=eastwest;" parent="n5-ivR6pZSbbAcUmIhZk-196" vertex="1">
                    <mxGeometry y="147.8" width="243" height="28" as="geometry"/>
                </mxCell>
                <mxCell id="n5-ivR6pZSbbAcUmIhZk-253" value="+ GetEventById(eventId)" style="text;strokeColor=none;fillColor=none;align=left;verticalAlign=top;spacingLeft=4;spacingRight=4;overflow=hidden;rotatable=0;points=[[0,0.5],[1,0.5]];portConstraint=eastwest;" parent="n5-ivR6pZSbbAcUmIhZk-196" vertex="1">
                    <mxGeometry y="175.8" width="243" height="28" as="geometry"/>
                </mxCell>
                <mxCell id="n5-ivR6pZSbbAcUmIhZk-255" value="+ GetEventByName(eventName)" style="text;strokeColor=none;fillColor=none;align=left;verticalAlign=top;spacingLeft=4;spacingRight=4;overflow=hidden;rotatable=0;points=[[0,0.5],[1,0.5]];portConstraint=eastwest;" parent="n5-ivR6pZSbbAcUmIhZk-196" vertex="1">
                    <mxGeometry y="203.8" width="243" height="28" as="geometry"/>
                </mxCell>
                <mxCell id="n5-ivR6pZSbbAcUmIhZk-254" value="+ CreateEvents(event)" style="text;strokeColor=none;fillColor=none;align=left;verticalAlign=top;spacingLeft=4;spacingRight=4;overflow=hidden;rotatable=0;points=[[0,0.5],[1,0.5]];portConstraint=eastwest;" parent="n5-ivR6pZSbbAcUmIhZk-196" vertex="1">
                    <mxGeometry y="231.8" width="243" height="28" as="geometry"/>
                </mxCell>
                <mxCell id="n5-ivR6pZSbbAcUmIhZk-256" value="+ DeleteEvent(eventId)" style="text;strokeColor=none;fillColor=none;align=left;verticalAlign=top;spacingLeft=4;spacingRight=4;overflow=hidden;rotatable=0;points=[[0,0.5],[1,0.5]];portConstraint=eastwest;" parent="n5-ivR6pZSbbAcUmIhZk-196" vertex="1">
                    <mxGeometry y="259.8" width="243" height="28" as="geometry"/>
                </mxCell>
                <mxCell id="n5-ivR6pZSbbAcUmIhZk-202" value="NeighbourHood" style="swimlane;fontStyle=1;align=center;verticalAlign=top;childLayout=stackLayout;horizontal=1;startSize=29.149999618530273;horizontalStack=0;resizeParent=1;resizeParentMax=0;resizeLast=0;collapsible=0;marginBottom=0;" parent="1" vertex="1">
                    <mxGeometry x="415" y="1109" width="251" height="240.14999961853027" as="geometry"/>
                </mxCell>
                <mxCell id="n5-ivR6pZSbbAcUmIhZk-203" value="- neighbourId : integer" style="text;strokeColor=none;fillColor=none;align=left;verticalAlign=top;spacingLeft=4;spacingRight=4;overflow=hidden;rotatable=0;points=[[0,0.5],[1,0.5]];portConstraint=eastwest;" parent="n5-ivR6pZSbbAcUmIhZk-202" vertex="1">
                    <mxGeometry y="29.149999618530273" width="251" height="29" as="geometry"/>
                </mxCell>
                <mxCell id="n5-ivR6pZSbbAcUmIhZk-204" value="- neighbourNumberOfDesk : integer" style="text;strokeColor=none;fillColor=none;align=left;verticalAlign=top;spacingLeft=4;spacingRight=4;overflow=hidden;rotatable=0;points=[[0,0.5],[1,0.5]];portConstraint=eastwest;" parent="n5-ivR6pZSbbAcUmIhZk-202" vertex="1">
                    <mxGeometry y="58.14999961853027" width="251" height="29" as="geometry"/>
                </mxCell>
                <mxCell id="n5-ivR6pZSbbAcUmIhZk-206" value="- neighbourName : varchar(30)" style="text;strokeColor=none;fillColor=none;align=left;verticalAlign=top;spacingLeft=4;spacingRight=4;overflow=hidden;rotatable=0;points=[[0,0.5],[1,0.5]];portConstraint=eastwest;" parent="n5-ivR6pZSbbAcUmIhZk-202" vertex="1">
                    <mxGeometry y="87.14999961853027" width="251" height="29" as="geometry"/>
                </mxCell>
                <mxCell id="n5-ivR6pZSbbAcUmIhZk-205" style="line;strokeWidth=1;fillColor=none;align=left;verticalAlign=middle;spacingTop=-1;spacingLeft=3;spacingRight=3;rotatable=0;labelPosition=right;points=[];portConstraint=eastwest;strokeColor=inherit;" parent="n5-ivR6pZSbbAcUmIhZk-202" vertex="1">
                    <mxGeometry y="116.14999961853027" width="251" height="8" as="geometry"/>
                </mxCell>
                <mxCell id="n5-ivR6pZSbbAcUmIhZk-261" value="+ CreateNeighbourHood(neighbourHood)" style="text;strokeColor=none;fillColor=none;align=left;verticalAlign=top;spacingLeft=4;spacingRight=4;overflow=hidden;rotatable=0;points=[[0,0.5],[1,0.5]];portConstraint=eastwest;" parent="n5-ivR6pZSbbAcUmIhZk-202" vertex="1">
                    <mxGeometry y="124.14999961853027" width="251" height="29" as="geometry"/>
                </mxCell>
                <mxCell id="n5-ivR6pZSbbAcUmIhZk-262" value="+ GetNeighbourHoodById(neighbourHoodId)" style="text;strokeColor=none;fillColor=none;align=left;verticalAlign=top;spacingLeft=4;spacingRight=4;overflow=hidden;rotatable=0;points=[[0,0.5],[1,0.5]];portConstraint=eastwest;" parent="n5-ivR6pZSbbAcUmIhZk-202" vertex="1">
                    <mxGeometry y="153.14999961853027" width="251" height="29" as="geometry"/>
                </mxCell>
                <mxCell id="n5-ivR6pZSbbAcUmIhZk-263" value="+ DeleteNeighbourHood(neighbourHoodId)" style="text;strokeColor=none;fillColor=none;align=left;verticalAlign=top;spacingLeft=4;spacingRight=4;overflow=hidden;rotatable=0;points=[[0,0.5],[1,0.5]];portConstraint=eastwest;" parent="n5-ivR6pZSbbAcUmIhZk-202" vertex="1">
                    <mxGeometry y="182.14999961853027" width="251" height="29" as="geometry"/>
                </mxCell>
                <mxCell id="n5-ivR6pZSbbAcUmIhZk-264" value="+ GetAllNeighbourHood()" style="text;strokeColor=none;fillColor=none;align=left;verticalAlign=top;spacingLeft=4;spacingRight=4;overflow=hidden;rotatable=0;points=[[0,0.5],[1,0.5]];portConstraint=eastwest;" parent="n5-ivR6pZSbbAcUmIhZk-202" vertex="1">
                    <mxGeometry y="211.14999961853027" width="251" height="29" as="geometry"/>
                </mxCell>
                <mxCell id="n5-ivR6pZSbbAcUmIhZk-207" value="EventsEmployees" style="swimlane;fontStyle=1;align=center;verticalAlign=top;childLayout=stackLayout;horizontal=1;startSize=26.91428484235491;horizontalStack=0;resizeParent=1;resizeParentMax=0;resizeLast=0;collapsible=0;marginBottom=0;" parent="1" vertex="1">
                    <mxGeometry x="1018" y="863.36" width="240" height="201.9142848423549" as="geometry"/>
                </mxCell>
                <mxCell id="n5-ivR6pZSbbAcUmIhZk-208" value="- eventId : integer" style="text;strokeColor=none;fillColor=none;align=left;verticalAlign=top;spacingLeft=4;spacingRight=4;overflow=hidden;rotatable=0;points=[[0,0.5],[1,0.5]];portConstraint=eastwest;" parent="n5-ivR6pZSbbAcUmIhZk-207" vertex="1">
                    <mxGeometry y="26.91428484235491" width="240" height="27" as="geometry"/>
                </mxCell>
                <mxCell id="n5-ivR6pZSbbAcUmIhZk-209" value="- employeeId : integer" style="text;strokeColor=none;fillColor=none;align=left;verticalAlign=top;spacingLeft=4;spacingRight=4;overflow=hidden;rotatable=0;points=[[0,0.5],[1,0.5]];portConstraint=eastwest;" parent="n5-ivR6pZSbbAcUmIhZk-207" vertex="1">
                    <mxGeometry y="53.91428484235491" width="240" height="27" as="geometry"/>
                </mxCell>
                <mxCell id="n5-ivR6pZSbbAcUmIhZk-210" style="line;strokeWidth=1;fillColor=none;align=left;verticalAlign=middle;spacingTop=-1;spacingLeft=3;spacingRight=3;rotatable=0;labelPosition=right;points=[];portConstraint=eastwest;strokeColor=inherit;" parent="n5-ivR6pZSbbAcUmIhZk-207" vertex="1">
                    <mxGeometry y="80.9142848423549" width="240" height="13" as="geometry"/>
                </mxCell>
                <mxCell id="n5-ivR6pZSbbAcUmIhZk-257" value="+ CreateEventEmployee(eventEmeployee)" style="text;strokeColor=none;fillColor=none;align=left;verticalAlign=top;spacingLeft=4;spacingRight=4;overflow=hidden;rotatable=0;points=[[0,0.5],[1,0.5]];portConstraint=eastwest;" parent="n5-ivR6pZSbbAcUmIhZk-207" vertex="1">
                    <mxGeometry y="93.9142848423549" width="240" height="27" as="geometry"/>
                </mxCell>
                <mxCell id="n5-ivR6pZSbbAcUmIhZk-259" value="+ GetEventEmployeeById(eventId)" style="text;strokeColor=none;fillColor=none;align=left;verticalAlign=top;spacingLeft=4;spacingRight=4;overflow=hidden;rotatable=0;points=[[0,0.5],[1,0.5]];portConstraint=eastwest;" parent="n5-ivR6pZSbbAcUmIhZk-207" vertex="1">
                    <mxGeometry y="120.9142848423549" width="240" height="27" as="geometry"/>
                </mxCell>
                <mxCell id="n5-ivR6pZSbbAcUmIhZk-260" value="+ GetAllEventEmployee()" style="text;strokeColor=none;fillColor=none;align=left;verticalAlign=top;spacingLeft=4;spacingRight=4;overflow=hidden;rotatable=0;points=[[0,0.5],[1,0.5]];portConstraint=eastwest;" parent="n5-ivR6pZSbbAcUmIhZk-207" vertex="1">
                    <mxGeometry y="147.9142848423549" width="240" height="27" as="geometry"/>
                </mxCell>
                <mxCell id="n5-ivR6pZSbbAcUmIhZk-258" value="+ DeleteEventEmployee(eventId)" style="text;strokeColor=none;fillColor=none;align=left;verticalAlign=top;spacingLeft=4;spacingRight=4;overflow=hidden;rotatable=0;points=[[0,0.5],[1,0.5]];portConstraint=eastwest;" parent="n5-ivR6pZSbbAcUmIhZk-207" vertex="1">
                    <mxGeometry y="174.9142848423549" width="240" height="27" as="geometry"/>
                </mxCell>
                <mxCell id="n5-ivR6pZSbbAcUmIhZk-270" value="&lt;font style=&quot;font-size: 18px;&quot;&gt;1&lt;/font&gt;" style="text;html=1;align=center;verticalAlign=middle;whiteSpace=wrap;rounded=0;fontFamily=Helvetica;fontSize=12;fontColor=default;fontStyle=1;" parent="1" vertex="1">
                    <mxGeometry x="503" y="349" width="60" height="40" as="geometry"/>
                </mxCell>
                <mxCell id="n5-ivR6pZSbbAcUmIhZk-275" value="&lt;font style=&quot;font-size: 17px;&quot;&gt;1..*&lt;/font&gt;" style="endArrow=open;html=1;endSize=12;startArrow=diamondThin;startSize=14;startFill=1;edgeStyle=orthogonalEdgeStyle;align=left;verticalAlign=bottom;rounded=0;fontFamily=Helvetica;fontSize=12;fontColor=default;fontStyle=1;exitX=0.5;exitY=0;exitDx=0;exitDy=0;entryX=0.375;entryY=1.123;entryDx=0;entryDy=0;entryPerimeter=0;" parent="1" source="n5-ivR6pZSbbAcUmIhZk-184" target="n5-ivR6pZSbbAcUmIhZk-236" edge="1">
                    <mxGeometry x="-0.9427" y="-11" relative="1" as="geometry">
                        <mxPoint x="548" y="709" as="sourcePoint"/>
                        <mxPoint x="738" y="589" as="targetPoint"/>
                        <Array as="points">
                            <mxPoint x="547" y="588"/>
                            <mxPoint x="648" y="588"/>
                        </Array>
                        <mxPoint as="offset"/>
                    </mxGeometry>
                </mxCell>
                <mxCell id="n5-ivR6pZSbbAcUmIhZk-276" value="&lt;font style=&quot;font-size: 18px;&quot;&gt;1..*&lt;/font&gt;" style="endArrow=open;html=1;endSize=12;startArrow=diamondThin;startSize=14;startFill=1;edgeStyle=orthogonalEdgeStyle;align=left;verticalAlign=bottom;rounded=0;fontFamily=Helvetica;fontSize=12;fontColor=default;fontStyle=1;exitX=0.32;exitY=0;exitDx=0;exitDy=0;exitPerimeter=0;" parent="1" source="n5-ivR6pZSbbAcUmIhZk-190" edge="1">
                    <mxGeometry x="-0.9194" y="50" relative="1" as="geometry">
                        <mxPoint x="588" y="579" as="sourcePoint"/>
                        <mxPoint x="748" y="469" as="targetPoint"/>
                        <Array as="points">
                            <mxPoint x="788" y="589"/>
                            <mxPoint x="747" y="589"/>
                        </Array>
                        <mxPoint as="offset"/>
                    </mxGeometry>
                </mxCell>
                <mxCell id="n5-ivR6pZSbbAcUmIhZk-279" value="&lt;font style=&quot;font-size: 20px;&quot;&gt;0..*&lt;/font&gt;" style="endArrow=open;html=1;endSize=12;startArrow=diamondThin;startSize=14;startFill=1;edgeStyle=orthogonalEdgeStyle;align=left;verticalAlign=bottom;rounded=0;fontFamily=Helvetica;fontSize=12;fontColor=default;fontStyle=1;entryX=0.987;entryY=-0.143;entryDx=0;entryDy=0;entryPerimeter=0;exitX=0;exitY=0.936;exitDx=0;exitDy=0;exitPerimeter=0;" parent="1" source="n5-ivR6pZSbbAcUmIhZk-200" target="n5-ivR6pZSbbAcUmIhZk-231" edge="1">
                    <mxGeometry x="-0.6877" y="-12" relative="1" as="geometry">
                        <mxPoint x="1028" y="279" as="sourcePoint"/>
                        <mxPoint x="988" y="289" as="targetPoint"/>
                        <Array as="points">
                            <mxPoint x="918" y="279"/>
                            <mxPoint x="918" y="290"/>
                            <mxPoint x="794" y="290"/>
                        </Array>
                        <mxPoint as="offset"/>
                    </mxGeometry>
                </mxCell>
                <mxCell id="n5-ivR6pZSbbAcUmIhZk-281" value="&lt;span style=&quot;font-size: 20px;&quot;&gt;0..*&lt;/span&gt;" style="endArrow=open;html=1;endSize=12;startArrow=diamondThin;startSize=14;startFill=1;edgeStyle=orthogonalEdgeStyle;align=left;verticalAlign=bottom;rounded=0;fontFamily=Helvetica;fontSize=12;fontColor=default;fontStyle=1;" parent="1" edge="1">
                    <mxGeometry x="-0.9503" y="50" relative="1" as="geometry">
                        <mxPoint x="1168" y="859" as="sourcePoint"/>
                        <mxPoint x="1168" y="456.8" as="targetPoint"/>
                        <mxPoint as="offset"/>
                    </mxGeometry>
                </mxCell>
                <mxCell id="n5-ivR6pZSbbAcUmIhZk-282" value="&lt;font style=&quot;font-size: 19px;&quot;&gt;1..1&lt;/font&gt;" style="endArrow=open;html=1;endSize=12;startArrow=diamondThin;startSize=14;startFill=1;edgeStyle=orthogonalEdgeStyle;align=left;verticalAlign=bottom;rounded=0;fontFamily=Helvetica;fontSize=12;fontColor=default;fontStyle=1;exitX=0.41;exitY=0;exitDx=0;exitDy=0;exitPerimeter=0;entryX=0.381;entryY=1.286;entryDx=0;entryDy=0;entryPerimeter=0;" parent="1" source="n5-ivR6pZSbbAcUmIhZk-202" target="n5-ivR6pZSbbAcUmIhZk-245" edge="1">
                    <mxGeometry x="-1" y="-23" relative="1" as="geometry">
                        <mxPoint x="506" y="1019" as="sourcePoint"/>
                        <mxPoint x="666" y="1019" as="targetPoint"/>
                        <Array as="points">
                            <mxPoint x="518" y="1019"/>
                        </Array>
                        <mxPoint as="offset"/>
                    </mxGeometry>
                </mxCell>
                <mxCell id="n5-ivR6pZSbbAcUmIhZk-283" value="&lt;font style=&quot;font-size: 19px;&quot;&gt;0..*&lt;/font&gt;" style="text;html=1;align=center;verticalAlign=middle;whiteSpace=wrap;rounded=0;fontFamily=Helvetica;fontSize=12;fontColor=default;fontStyle=1;" parent="1" vertex="1">
                    <mxGeometry x="528" y="969" width="60" height="30" as="geometry"/>
                </mxCell>
                <mxCell id="n5-ivR6pZSbbAcUmIhZk-285" value="&lt;font style=&quot;font-size: 18px;&quot;&gt;1&lt;/font&gt;" style="text;html=1;align=center;verticalAlign=middle;whiteSpace=wrap;rounded=0;fontFamily=Helvetica;fontSize=12;fontColor=default;fontStyle=1;" parent="1" vertex="1">
                    <mxGeometry x="588" y="469" width="60" height="40" as="geometry"/>
                </mxCell>
                <mxCell id="n5-ivR6pZSbbAcUmIhZk-286" value="&lt;font style=&quot;font-size: 18px;&quot;&gt;1&lt;/font&gt;" style="text;html=1;align=center;verticalAlign=middle;whiteSpace=wrap;rounded=0;fontFamily=Helvetica;fontSize=12;fontColor=default;fontStyle=1;" parent="1" vertex="1">
                    <mxGeometry x="737" y="467.15" width="60" height="40" as="geometry"/>
                </mxCell>
                <mxCell id="n5-ivR6pZSbbAcUmIhZk-287" value="&lt;font style=&quot;font-size: 18px;&quot;&gt;1&lt;/font&gt;" style="text;html=1;align=center;verticalAlign=middle;whiteSpace=wrap;rounded=0;fontFamily=Helvetica;fontSize=12;fontColor=default;fontStyle=1;" parent="1" vertex="1">
                    <mxGeometry x="1108" y="456.8" width="60" height="40" as="geometry"/>
                </mxCell>
                <mxCell id="n5-ivR6pZSbbAcUmIhZk-289" value="&lt;font style=&quot;font-size: 18px;&quot;&gt;0..*&lt;/font&gt;" style="endArrow=open;html=1;endSize=12;startArrow=diamondThin;startSize=14;startFill=0;edgeStyle=orthogonalEdgeStyle;align=left;verticalAlign=bottom;rounded=0;fontFamily=Helvetica;fontSize=12;fontColor=default;fontStyle=1;exitX=0.659;exitY=-0.015;exitDx=0;exitDy=0;exitPerimeter=0;" parent="1" edge="1">
                    <mxGeometry x="-0.9793" y="-19" relative="1" as="geometry">
                        <mxPoint x="288.56600000000003" y="614.643" as="sourcePoint"/>
                        <mxPoint x="558" y="338.96000000000004" as="targetPoint"/>
                        <Array as="points">
                            <mxPoint x="289" y="338.96000000000004"/>
                        </Array>
                        <mxPoint as="offset"/>
                    </mxGeometry>
                </mxCell>
                <mxCell id="n5-ivR6pZSbbAcUmIhZk-290" value="&lt;font style=&quot;font-size: 18px;&quot;&gt;1&lt;/font&gt;" style="text;html=1;align=center;verticalAlign=middle;whiteSpace=wrap;rounded=0;fontFamily=Helvetica;fontSize=12;fontColor=default;fontStyle=1;" parent="1" vertex="1">
                    <mxGeometry x="797.5" y="298.07" width="60" height="40" as="geometry"/>
                </mxCell>
            </root>
        </mxGraphModel>
    </diagram>
</mxfile>